<svg xmlns="http://www.w3.org/2000/svg" viewBox="0 0 512 512" role="img" aria-labelledby="title desc">
  <title id="title">CodiesCatchCompass icon</title>
  <desc id="desc">A treasure-map compass with a fish hook and sea wave.</desc>
  <defs>
    <radialGradient id="paper" cx="35%" cy="28%" r="72%">
      <stop offset="0" stop-color="#fff3cf"/>
      <stop offset="0.52" stop-color="#e4c184"/>
      <stop offset="1" stop-color="#8b5a2f"/>
    </radialGradient>
    <linearGradient id="needle" x1="232" x2="292" y1="92" y2="420" gradientUnits="userSpaceOnUse">
      <stop offset="0" stop-color="#a62924"/>
      <stop offset="0.5" stop-color="#a62924"/>
      <stop offset="0.51" stop-color="#1e6570"/>
      <stop offset="1" stop-color="#1e6570"/>
    </linearGradient>
  </defs>
  <circle cx="256" cy="256" r="238" fill="#2a1c13"/>
  <circle cx="256" cy="256" r="218" fill="url(#paper)"/>
  <circle cx="256" cy="256" r="176" fill="none" stroke="#2a1c13" stroke-width="18" opacity="0.88"/>
  <path d="M256 54l23 72h75l-61 44 23 72-60-45-60 45 23-72-61-44h75z" fill="#b98232" opacity="0.42"/>
  <path d="M244 104l44 146-20 158-44-146z" fill="url(#needle)" stroke="#2a1c13" stroke-linejoin="round" stroke-width="12"/>
  <circle cx="256" cy="256" r="28" fill="#fff6d9" stroke="#2a1c13" stroke-width="12"/>
  <path d="M104 328c42-34 83-34 125 0 42 34 84 34 126 0 23-19 46-27 70-24" fill="none" stroke="#1e6570" stroke-linecap="round" stroke-width="24"/>
  <path d="M356 163c35 38 36 86 5 123-26 31-65 41-98 25" fill="none" stroke="#2a1c13" stroke-linecap="round" stroke-width="22"/>
  <path d="M352 162c12-16 33-17 46-2" fill="none" stroke="#2a1c13" stroke-linecap="round" stroke-width="22"/>
  <path d="M290 319c-9 38-42 61-80 58" fill="none" stroke="#2a1c13" stroke-linecap="round" stroke-width="20"/>
  <text x="256" y="442" fill="#2a1c13" font-family="Georgia, serif" font-size="74" font-weight="700" text-anchor="middle">C</text>
</svg>
