<svg xmlns="http://www.w3.org/2000/svg" viewBox="0 0 96 96" role="img" aria-label="NovaBite icon">
  <defs>
    <radialGradient id="bg" cx="32%" cy="18%" r="86%">
      <stop offset="0" stop-color="#4a2112"/>
      <stop offset="0.5" stop-color="#140806"/>
      <stop offset="1" stop-color="#050302"/>
    </radialGradient>
    <linearGradient id="gold" x1="15" y1="10" x2="82" y2="86">
      <stop offset="0" stop-color="#fff6cf"/>
      <stop offset="0.34" stop-color="#dfae57"/>
      <stop offset="0.68" stop-color="#a86929"/>
      <stop offset="1" stop-color="#fff1be"/>
    </linearGradient>
    <linearGradient id="flame" x1="45" y1="10" x2="58" y2="40">
      <stop offset="0" stop-color="#fff2b7"/>
      <stop offset="0.58" stop-color="#ff9f35"/>
      <stop offset="1" stop-color="#8f2414"/>
    </linearGradient>
  </defs>
  <rect x="6" y="6" width="84" height="84" rx="24" fill="url(#bg)"/>
  <rect x="9" y="9" width="78" height="78" rx="21" fill="none" stroke="url(#gold)" stroke-width="3"/>
  <path d="M22 55c8 17 30 25 49 12 7-5 12-11 15-18-16 16-40 19-57 8-8-5-13-12-16-20-2 7 1 14 9 18Z" fill="none" stroke="url(#gold)" stroke-width="4.5" stroke-linecap="round"/>
  <path d="M31 43c12-15 36-16 50 0-15-8-35-4-47 10-4-2-5-5-3-10Z" fill="#fff0c0"/>
  <path d="M48 13c8 11 6 18 0 25-5-7-5-15 0-25Z" fill="url(#flame)"/>
  <text x="48" y="60" text-anchor="middle" font-family="Georgia, 'Times New Roman', serif" font-size="22" font-weight="700" fill="#fff9e8">NB</text>
</svg>
