<svg xmlns="http://www.w3.org/2000/svg" viewBox="0 0 96 96" role="img" aria-label="SprintSmith icon">
  <defs>
    <linearGradient id="bg" x1="8" y1="7" x2="88" y2="90">
      <stop offset="0" stop-color="#8b5cf6"/>
      <stop offset="0.5" stop-color="#4c1d95"/>
      <stop offset="1" stop-color="#16112a"/>
    </linearGradient>
    <linearGradient id="line" x1="24" y1="19" x2="74" y2="78">
      <stop offset="0" stop-color="#f8fafc"/>
      <stop offset="0.62" stop-color="#c4b5fd"/>
      <stop offset="1" stop-color="#fbbf24"/>
    </linearGradient>
  </defs>
  <rect x="5" y="5" width="86" height="86" rx="23" fill="url(#bg)"/>
  <rect x="10" y="10" width="76" height="76" rx="19" fill="none" stroke="rgba(255,255,255,.16)" stroke-width="1.5"/>
  <path d="M28 31h19c8 0 14 6 14 14s-6 14-14 14H33" fill="none" stroke="url(#line)" stroke-width="6" stroke-linecap="round"/>
  <path d="M34 55h27c6 0 11 5 11 11s-5 11-11 11H28" fill="none" stroke="url(#line)" stroke-width="6" stroke-linecap="round"/>
  <rect x="23" y="21" width="13" height="13" rx="4" fill="#f8fafc"/>
  <rect x="23" y="45" width="13" height="13" rx="4" fill="#fbbf24"/>
  <rect x="23" y="69" width="13" height="13" rx="4" fill="#c4b5fd"/>
  <circle cx="63" cy="45" r="4" fill="#f8fafc"/>
  <circle cx="73" cy="66" r="4" fill="#fbbf24"/>
</svg>
