<svg xmlns="http://www.w3.org/2000/svg" viewBox="0 0 96 96" role="img" aria-label="VaultPay icon">
  <defs>
    <linearGradient id="case" x1="10" y1="8" x2="86" y2="88" gradientUnits="userSpaceOnUse">
      <stop stop-color="#1F3550"/>
      <stop offset=".42" stop-color="#0F766E"/>
      <stop offset="1" stop-color="#0B1220"/>
    </linearGradient>
    <linearGradient id="vault" x1="24" y1="20" x2="74" y2="76" gradientUnits="userSpaceOnUse">
      <stop stop-color="#FFFFFF"/>
      <stop offset=".48" stop-color="#D9F4F1"/>
      <stop offset="1" stop-color="#39B8AD"/>
    </linearGradient>
    <filter id="soft" x="-25%" y="-25%" width="150%" height="150%">
      <feDropShadow dx="0" dy="8" stdDeviation="8" flood-color="#081225" flood-opacity=".28"/>
    </filter>
  </defs>
  <rect x="5" y="5" width="86" height="86" rx="24" fill="url(#case)" filter="url(#soft)"/>
  <path d="M18 29c12-10 25-14 40-12 8 1 15 4 20 8" fill="none" stroke="#FFFFFF" stroke-width="3.8" stroke-linecap="round" opacity=".72"/>
  <rect x="20" y="21" width="56" height="56" rx="18" fill="rgba(255,255,255,.12)" stroke="rgba(255,255,255,.68)" stroke-width="3.5"/>
  <circle cx="48" cy="49" r="24" fill="rgba(11,18,32,.28)" stroke="url(#vault)" stroke-width="5.8"/>
  <circle cx="48" cy="49" r="10" fill="#132238" stroke="#FFFFFF" stroke-width="3"/>
  <path d="M34 39l14 26 14-26h-9l-5 11-5-11h-9Z" fill="url(#vault)"/>
  <path d="M48 25v10M48 63v10M24 49h10M62 49h10M31 32l7 7M58 59l7 7M65 32l-7 7M38 59l-7 7" fill="none" stroke="#F8FCFF" stroke-width="3.4" stroke-linecap="round" opacity=".86"/>
  <path d="M28 75h40" stroke="#39B8AD" stroke-width="4.5" stroke-linecap="round"/>
</svg>
