<svg xmlns="http://www.w3.org/2000/svg" width="1200" height="675" viewBox="0 0 1200 675" role="img" aria-labelledby="title">
  <title id="title">DwellKit website preview</title>
  <rect width="1200" height="675" fill="#faf7ef"/>
  <rect x="58" y="54" width="1084" height="567" rx="26" fill="#fff" stroke="rgba(0,0,0,.08)" stroke-width="3"/>
  <rect x="94" y="90" width="180" height="44" rx="22" fill="#211f19"/>
  <circle cx="123" cy="112" r="14" fill="#7a5d2d"/>
  <text x="150" y="119" fill="#fff" font-family="Arial, sans-serif" font-size="18" font-weight="800">DwellKit</text>
  <rect x="92" y="184" width="422" height="38" rx="19" fill="#7a5d2d"/>
  <rect x="92" y="244" width="548" height="24" rx="12" fill="#211f19" opacity=".22"/>
  <rect x="92" y="286" width="472" height="24" rx="12" fill="#211f19" opacity=".14"/>
  <rect x="92" y="360" width="172" height="54" rx="27" fill="#211f19"/>
  <rect x="284" y="360" width="172" height="54" rx="27" fill="#287c83"/>
  <rect x="704" y="156" width="330" height="380" rx="28" fill="#211f19"/>
  <rect x="740" y="198" width="126" height="15" rx="8" fill="#fff" opacity=".45"/>
  <rect x="740" y="246" width="236" height="96" rx="22" fill="#7a5d2d"/>
  <rect x="740" y="374" width="108" height="86" rx="20" fill="#287c83"/>
  <rect x="872" y="374" width="108" height="86" rx="20" fill="#fff" opacity=".18"/>
  <rect x="740" y="492" width="196" height="25" rx="13" fill="#fff"/>
  <rect x="92" y="492" width="160" height="18" rx="9" fill="#7a5d2d"/>
  <rect x="276" y="492" width="160" height="18" rx="9" fill="#287c83"/>
  <rect x="460" y="492" width="160" height="18" rx="9" fill="#211f19" opacity=".16"/>
</svg>
