<svg xmlns="http://www.w3.org/2000/svg" width="1200" height="675" viewBox="0 0 1200 675" role="img" aria-labelledby="title">
  <title id="title">PantryPilot preview</title>
  <rect width="1200" height="675" fill="#fff8df"/>
  <rect x="64" y="64" width="1072" height="547" rx="34" fill="#fff" stroke="#ca8a04" stroke-opacity=".22" stroke-width="3"/>
  <rect x="104" y="112" width="220" height="58" rx="29" fill="#28200f"/>
  <circle cx="136" cy="141" r="18" fill="#ca8a04"/>
  <text x="166" y="149" fill="#fff" font-family="Arial, sans-serif" font-weight="800" font-size="24">PantryPilot</text>
  <text x="104" y="250" fill="#28200f" font-family="Georgia, serif" font-size="62" font-weight="700">Weekly groceries rebuilt with memory and control.</text>
  <rect x="104" y="306" width="470" height="18" rx="9" fill="#28200f" opacity=".2"/>
  <rect x="104" y="344" width="390" height="18" rx="9" fill="#28200f" opacity=".14"/>
  <rect x="104" y="424" width="156" height="54" rx="27" fill="#28200f"/>
  <rect x="282" y="424" width="156" height="54" rx="27" fill="#ca8a04"/>
  <g transform="translate(710 135)">
    <rect width="310" height="390" rx="28" fill="#28200f"/>
    <rect x="34" y="42" width="118" height="14" rx="7" fill="#fff" opacity=".45"/>
    <rect x="34" y="90" width="230" height="96" rx="22" fill="#ca8a04"/>
    <rect x="34" y="220" width="108" height="86" rx="20" fill="#16a34a"/>
    <rect x="166" y="220" width="108" height="86" rx="20" fill="#fff" opacity=".18"/>
    <rect x="34" y="338" width="196" height="24" rx="12" fill="#fff"/>
  </g>
</svg>